<?xml version="1.0" standalone="no"?>
<!DOCTYPE svg PUBLIC "-//W3C//DTD SVG 20010904//EN" "http://www.w3.org/TR/2001/REC-SVG-20010904/DTD/svg10.dtd">
<!-- Created using Karbon, part of Calligra: http://www.calligra.org/karbon -->
<svg xmlns="http://www.w3.org/2000/svg" xmlns:xlink="http://www.w3.org/1999/xlink" width="68.8pt" height="68.8pt">
<defs>
  <linearGradient id="gradient0" gradientTransform="" gradientUnits="objectBoundingBox" x1="0.50000000000" y1="0.50000000000" x2="0.50059737157" y2="1.00000000000" spreadMethod="pad">
   <stop stop-color="#25e5da" offset="0.01587301679" stop-opacity="0.90980392157"/>
   <stop stop-color="#48e9e0" offset="0.63125765324" stop-opacity="0.92156862745"/>
   <stop stop-color="#ffffff" offset="1.00000000000" stop-opacity="1.00000000000"/>
  </linearGradient>
  <linearGradient id="gradient1" gradientTransform="" gradientUnits="objectBoundingBox" x1="0.50000000000" y1="0.50000000000" x2="0.50000000000" y2="0.00000000000" spreadMethod="pad">
   <stop stop-color="#000000" offset="0.00000000000" stop-opacity="1.00000000000"/>
   <stop stop-color="#ffffff" offset="1.00000000000" stop-opacity="1.00000000000"/>
  </linearGradient>
  <linearGradient id="gradient2" gradientTransform="" gradientUnits="objectBoundingBox" x1="0.50000000000" y1="0.50000000000" x2="0.50000000000" y2="0.00000000000" spreadMethod="pad">
   <stop stop-color="#000000" offset="0.00000000000" stop-opacity="1.00000000000"/>
   <stop stop-color="#ffffff" offset="1.00000000000" stop-opacity="1.00000000000"/>
  </linearGradient>
  <linearGradient id="gradient3" gradientTransform="" gradientUnits="objectBoundingBox" x1="0.50000000000" y1="0.50000000000" x2="0.50000000000" y2="0.00000000000" spreadMethod="pad">
   <stop stop-color="#ffffff" offset="0.00000000000" stop-opacity="1.00000000000"/>
   <stop stop-color="#000000" offset="1.00000000000" stop-opacity="1.00000000000"/>
  </linearGradient>
  <linearGradient id="gradient4" gradientTransform="" gradientUnits="objectBoundingBox" x1="0.50000000000" y1="0.50000000000" x2="0.50000000000" y2="0.00000000000" spreadMethod="pad">
   <stop stop-color="#ffffff" offset="0.00000000000" stop-opacity="1.00000000000"/>
   <stop stop-color="#000000" offset="1.00000000000" stop-opacity="1.00000000000"/>
  </linearGradient>
 </defs>
<g id="Layer_2">
  <ellipse id="shape0" transform="" rx="34.41682151589pt" ry="34.44205378973pt" cx="34.41682151589pt" cy="34.44205378973pt" fill="url(#gradient0)" fill-rule="evenodd" stroke="#000000" stroke-width="0.00000000000" stroke-linecap="square" stroke-linejoin="miter" stroke-miterlimit="1.98425543308"/>
 </g><g id="Layer_1">
  <ellipse id="shape1" transform="matrix(0.99992 0.0125877 -0.0133496 0.99991 25.6601 25.9584)" rx="6.29437430468pt" ry="6.29929840741pt" cx="6.29437430468pt" cy="6.29929840741pt" fill="url(#gradient1)" fill-rule="evenodd" stroke="#000000" stroke-width="1.25000000000" stroke-linecap="square" stroke-linejoin="miter" stroke-miterlimit="2.00000000000"/>
  <path id="shape2" transform="matrix(0.99992 0.0125877 -0.0133496 0.99991 44.5946 44.5247)" fill="url(#gradient2)" fill-rule="evenodd" stroke="#000000" stroke-width="1.25000000000" stroke-linecap="square" stroke-linejoin="miter" stroke-miterlimit="2.00000000000" d="M15.7359 7.87412C15.7359 3.52536 12.2133 2.66285e-16 7.86797 0C3.52261 -2.66285e-16 5.32153e-16 3.52536 0 7.87412C-5.32153e-16 12.2229 3.52261 15.7482 7.86797 15.7482C12.2133 15.7482 15.7359 12.2229 15.7359 7.87412"/>
  <path id="shape3" transform="matrix(0.99992 0.0125877 -0.0133496 0.99991 44.497 26.2578)" fill="url(#gradient3)" fill-rule="evenodd" stroke="#000000" stroke-width="1.25000000000" stroke-linecap="square" stroke-linejoin="miter" stroke-miterlimit="2.00000000000" d="M15.7359 7.87412C15.7359 3.52536 12.2133 2.66285e-16 7.86797 0C3.52261 -2.66285e-16 5.32153e-16 3.52536 0 7.87412C-5.32153e-16 12.2229 3.52261 15.7482 7.86797 15.7482C12.2133 15.7482 15.7359 12.2229 15.7359 7.87412"/>
  <path id="shape4" transform="matrix(0.99992 0.0125877 -0.0133496 0.99991 25.5625 44.1254)" fill="url(#gradient4)" fill-rule="evenodd" stroke="#000000" stroke-width="1.25000000000" stroke-linecap="square" stroke-linejoin="miter" stroke-miterlimit="2.00000000000" d="M15.7359 7.87412C15.7359 3.52536 12.2133 2.66285e-16 7.86797 0C3.52261 -2.66285e-16 5.32153e-16 3.52536 0 7.87412C-5.32153e-16 12.2229 3.52261 15.7482 7.86797 15.7482C12.2133 15.7482 15.7359 12.2229 15.7359 7.87412"/>
 </g>
</svg>
